<?xml version="1.0" encoding="UTF-8"?>
<!DOCTYPE svg PUBLIC "-//W3C//DTD SVG 1.1//EN" "http://www.w3.org/Graphics/SVG/1.1/DTD/svg11.dtd">
<svg xmlns="http://www.w3.org/2000/svg" version="1.1" width="60px" height="60px" style="shape-rendering:geometricPrecision; text-rendering:geometricPrecision; image-rendering:optimizeQuality; fill-rule:evenodd; clip-rule:evenodd" xmlns:xlink="http://www.w3.org/1999/xlink">
<g><path style="opacity:1" fill="#363234" d="M -0.5,-0.5 C 19.5,-0.5 39.5,-0.5 59.5,-0.5C 59.5,19.5 59.5,39.5 59.5,59.5C 39.5,59.5 19.5,59.5 -0.5,59.5C -0.5,39.5 -0.5,19.5 -0.5,-0.5 Z"/></g>
<g><path style="opacity:1" fill="#6437b9" d="M 23.5,1.5 C 33.1165,-0.108808 41.1165,2.55786 47.5,9.5C 44.5533,8.59539 41.8866,7.09539 39.5,5C 36.9373,3.92074 34.2706,3.42074 31.5,3.5C 28.8333,2.83333 26.1667,2.16667 23.5,1.5 Z"/></g>
<g><path style="opacity:1" fill="#8e7baf" d="M 23.5,1.5 C 26.1667,2.16667 28.8333,2.83333 31.5,3.5C 22.8086,1.91866 15.4753,4.25199 9.5,10.5C 9.16667,10.5 8.83333,10.5 8.5,10.5C 12.2072,5.47263 17.2072,2.47263 23.5,1.5 Z"/></g>
<g><path style="opacity:1" fill="#574c65" d="M 8.5,10.5 C 8.83333,10.5 9.16667,10.5 9.5,10.5C 7.5966,13.2746 6.26327,15.9413 5.5,18.5C 4.5,18.1667 3.83333,17.5 3.5,16.5C 4.70899,14.0592 6.37565,12.0592 8.5,10.5 Z"/></g>
<g><path style="opacity:1" fill="#8750f4" d="M 33.5,15.5 C 35.7925,15.2436 37.9592,15.5769 40,16.5C 43.788,23.9125 47.9547,31.0791 52.5,38C 51.3333,38.1667 50.1667,38.3333 49,38.5C 46.3242,37.4596 43.8242,36.1263 41.5,34.5C 38.8692,34.7823 36.3692,35.4489 34,36.5C 33.5065,38.1341 33.3398,39.8008 33.5,41.5C 31.5,41.5 29.5,41.5 27.5,41.5C 29.2934,32.7862 31.2934,24.1195 33.5,15.5 Z"/></g>
<g><path style="opacity:1" fill="#3d2d53" d="M 47.5,9.5 C 49.7639,11.0971 51.7639,13.0971 53.5,15.5C 54.5896,16.6086 54.5896,17.6086 53.5,18.5C 50.5819,16.1229 48.5819,13.1229 47.5,9.5 Z"/></g>
<g><path style="opacity:1" fill="#efeeee" d="M 21.5,42.5 C 19.8333,42.5 18.1667,42.5 16.5,42.5C 16.7678,40.901 16.4345,39.5676 15.5,38.5C 15.474,33.7329 14.8073,29.0662 13.5,24.5C 11.5,24.5 9.5,24.5 7.5,24.5C 7.5,22.5 7.5,20.5 7.5,18.5C 13.1613,18.0932 18.828,17.7599 24.5,17.5C 24.5,19.1667 24.5,20.8333 24.5,22.5C 22.8333,22.5 21.1667,22.5 19.5,22.5C 20.6353,29.1153 21.302,35.7819 21.5,42.5 Z"/></g>
<g><path style="opacity:1" fill="#38323b" d="M 40.5,29.5 C 38.5168,29.8432 37.1834,29.1765 36.5,27.5C 36.4614,26.2438 36.9614,25.2438 38,24.5C 39.3717,25.9101 40.205,27.5767 40.5,29.5 Z"/></g>
<g><path style="opacity:1" fill="#533c7a" d="M 36.5,27.5 C 37.1834,29.1765 38.5168,29.8432 40.5,29.5C 39.0813,30.4511 37.4147,30.7845 35.5,30.5C 35.2627,29.209 35.596,28.209 36.5,27.5 Z"/></g>
<g><path style="opacity:1" fill="#929090" d="M 15.5,38.5 C 16.4345,39.5676 16.7678,40.901 16.5,42.5C 18.1667,42.5 19.8333,42.5 21.5,42.5C 19.7354,43.4614 17.7354,43.7947 15.5,43.5C 15.5,41.8333 15.5,40.1667 15.5,38.5 Z"/></g>
<g><path style="opacity:1" fill="#3b2f49" d="M 13.5,51.5 C 12.8333,51.5 12.5,51.8333 12.5,52.5C 10.8523,51.1902 9.18561,49.8569 7.5,48.5C 6.39138,49.5896 5.39138,49.5896 4.5,48.5C 5.02527,47.8076 5.69194,47.3076 6.5,47C 5.22137,45.3539 3.5547,44.1872 1.5,43.5C 1.91862,42.3279 2.58529,41.3279 3.5,40.5C 6.73794,44.3116 10.0713,46.9783 13.5,48.5C 13.5,49.5 13.5,50.5 13.5,51.5 Z"/></g>
<g><path style="opacity:1" fill="#816ea2" d="M 40.5,54.5 C 40.5,53.8333 40.1667,53.5 39.5,53.5C 45.3949,50.7747 49.8949,46.4414 53,40.5C 51.2319,47.1123 47.0652,51.779 40.5,54.5 Z"/></g>
<g><path style="opacity:1" fill="#6740b1" d="M 24.5,55.5 C 24.5,56.1667 24.1667,56.5 23.5,56.5C 19.5002,55.9964 15.8335,54.6631 12.5,52.5C 12.5,51.8333 12.8333,51.5 13.5,51.5C 14.9498,50.3424 15.9498,50.8424 16.5,53C 19.022,54.3409 21.6887,55.1743 24.5,55.5 Z"/></g>
<g><path style="opacity:1" fill="#b9a8d7" d="M 39.5,53.5 C 40.1667,53.5 40.5,53.8333 40.5,54.5C 37.6967,55.9279 34.6967,56.5946 31.5,56.5C 30.8333,56.5 30.5,56.1667 30.5,55.5C 33.5979,55.2444 36.5979,54.5778 39.5,53.5 Z"/></g>
<g><path style="opacity:1" fill="#886fb8" d="M 30.5,55.5 C 30.5,56.1667 30.8333,56.5 31.5,56.5C 28.8333,57.8333 26.1667,57.8333 23.5,56.5C 24.1667,56.5 24.5,56.1667 24.5,55.5C 26.7033,55.0651 28.7033,55.0651 30.5,55.5 Z"/></g>
</svg>
